<?xml version="1.0" standalone="no"?>
<!DOCTYPE svg PUBLIC "-//W3C//DTD SVG 20010904//EN"
 "http://www.w3.org/TR/2001/REC-SVG-20010904/DTD/svg10.dtd">
<svg version="1.0" xmlns="http://www.w3.org/2000/svg"
 width="260.000000pt" height="260.000000pt" viewBox="0 0 260.000000 260.000000"
 preserveAspectRatio="xMidYMid meet">
<metadata>
Created by potrace 1.11, written by Peter Selinger 2001-2013
</metadata>
<g transform="translate(0.000000,260.000000) scale(0.100000,-0.100000)"
fill="#000000" stroke="none">
<path d="M694 2361 c-94 -57 -86 -269 24 -597 l47 -143 -25 -5 c-14 -3 -76
-15 -139 -27 -93 -17 -117 -19 -136 -9 -32 17 -72 5 -89 -28 -10 -19 -32 -34
-73 -50 -72 -28 -147 -82 -173 -125 -58 -94 12 -194 187 -267 81 -34 256 -80
379 -100 l71 -11 -33 -88 c-85 -226 -127 -442 -105 -544 8 -38 23 -70 43 -93
27 -31 35 -34 83 -34 64 0 121 28 218 108 72 58 190 187 261 284 22 31 46 56
51 54 6 -1 11 -47 13 -104 l3 -102 344 0 345 0 0 820 0 820 -345 0 -345 0 0
-60 0 -60 295 0 295 0 0 -125 0 -125 -295 0 -295 0 0 -50 0 -50 -70 0 c-38 0
-70 2 -70 5 0 3 27 46 61 96 50 75 63 88 75 78 11 -9 14 -7 14 14 0 14 -4 29
-10 32 -5 3 -15 16 -21 28 -9 19 -8 19 10 -3 l21 -25 -1 45 c0 42 -1 44 -15
25 -15 -20 -16 -19 -37 10 -122 167 -299 340 -400 390 -79 40 -118 43 -163 16z
m166 -68 c76 -45 206 -172 313 -305 l78 -97 -77 -118 c-42 -65 -78 -119 -79
-120 -3 -5 -277 -25 -281 -20 -10 10 -84 227 -104 306 -29 113 -43 228 -35
288 14 110 72 131 185 66z m420 -423 c6 -11 8 -20 6 -20 -3 0 -10 9 -16 20 -6
11 -8 20 -6 20 3 0 10 -9 16 -20z m20 -330 c0 -54 -2 -60 -21 -60 -11 0 -34
-14 -51 -30 -26 -27 -30 -36 -25 -68 6 -34 4 -38 -26 -52 -18 -8 -38 -28 -46
-44 -38 -80 84 -155 135 -82 23 33 34 4 34 -96 l0 -88 -89 0 c-59 0 -92 4 -99
13 -5 6 -40 67 -77 135 -66 118 -84 135 -85 78 0 -21 97 -199 111 -204 5 -2 7
-7 5 -11 -4 -6 -217 7 -224 14 -6 6 122 268 201 413 l78 142 90 0 89 0 0 -60z
m238 -28 c2 -53 -1 -89 -9 -98 -15 -18 -169 -20 -187 -2 -13 13 -17 143 -6
173 5 13 22 15 103 13 l96 -3 3 -83z m-503 38 c-41 -65 -181 -339 -216 -423
l-32 -77 -36 6 c-222 36 -370 77 -474 131 -164 86 -155 170 27 258 68 33 75
34 101 21 33 -18 52 -12 85 25 21 23 41 31 130 48 174 33 170 33 177 13 3 -9
28 -64 55 -122 37 -79 51 -101 58 -90 16 26 11 46 -33 140 -42 87 -43 91 -23
95 27 6 87 11 154 13 l52 2 -25 -40z m489 -216 c13 -5 16 -23 16 -93 0 -54 -5
-92 -12 -99 -7 -7 -43 -12 -93 -12 -50 0 -86 5 -93 12 -7 7 -12 43 -12 93 0
50 5 86 12 93 13 13 153 17 182 6z m284 -96 c3 -114 7 -111 -118 -106 l-75 3
-3 89 c-2 49 0 96 2 103 4 11 27 13 98 11 l93 -3 3 -97z m-270 -265 c3 -85 1
-93 -19 -103 -31 -17 -167 -9 -179 10 -14 22 -12 164 2 178 9 9 41 12 103 10
l90 -3 3 -92z m270 -127 c2 -153 -1 -223 -9 -232 -12 -14 -141 -20 -173 -8
-14 5 -16 35 -16 228 0 123 3 226 7 230 4 4 48 5 98 4 l90 -3 3 -219z m-790
128 c50 -4 92 -11 92 -16 0 -18 122 -199 141 -209 10 -5 23 -19 29 -32 11 -22
11 -22 -7 1 l-19 23 -64 -83 c-131 -171 -301 -326 -392 -359 -47 -16 -87 -4
-106 31 -23 43 -9 235 26 365 27 99 83 263 98 287 4 6 29 7 58 4 28 -3 93 -8
144 -12z m282 -86 c0 -83 -11 -122 -28 -103 -13 15 -122 176 -122 181 0 2 34
4 75 4 l75 0 0 -82z m228 -90 c7 -7 12 -45 12 -99 0 -70 -3 -88 -16 -93 -29
-11 -169 -7 -182 6 -7 7 -12 44 -12 95 0 68 3 84 18 92 24 15 165 14 180 -1z
m-238 -48 c6 -11 8 -20 6 -20 -3 0 -10 9 -16 20 -6 11 -8 20 -6 20 3 0 10 -9
16 -20z"/>
<path d="M1732 1937 c-42 -45 -18 -127 37 -127 35 0 50 17 58 63 4 29 1 40
-20 61 -32 32 -47 33 -75 3z m66 -60 c-3 -37 -6 -42 -28 -42 -22 0 -25 5 -28
44 -4 49 10 66 41 50 14 -8 17 -20 15 -52z"/>
</g>
</svg>
